# xmcd
#
# Track frame offsets: 
#        150
#        15263
#        34391
#        54894
#        70552
#        89885
#        101047
#        113777
#        132589
#        150560
#        166013
#        181946
#        192094
#        208216
#        225457
#        245871
#
# Disc length: 3485 seconds
#
# Revision: 0
# Processed by: cddbd v1.4PL0 Copyright (c) Steve Scherf et al.
# Submitted via: ExactAudioCopy v0.95a3
#
DISCID=d40d9b10
DTITLE=Russell Ray - Cocktails in Cozumel
DYEAR=2003
DGENRE=Country
TTITLE0=Texas Women
TTITLE1=Corpus Christi Callin'
TTITLE2=Beerholder
TTITLE3=Girls All Get Prettier at Closin' Time
TTITLE4=Cocktails in Cozumel
TTITLE5=Jump In - Hang On
TTITLE6=The Stars Don't Shine at Gilley's (Anymore)
TTITLE7=Lost Without you
TTITLE8=Lonestar
TTITLE9=Angelique
TTITLE10=W.T.F.E.
TTITLE11=Goin' Down Swingin'
TTITLE12=Texas Will
TTITLE13=Bigger Than Dallas
TTITLE14=Beerholder (Radio Mix)
TTITLE15=W.T.F.E. (Radio Mix)
EXTD=
EXTT0=
EXTT1=
EXTT2=
EXTT3=
EXTT4=
EXTT5=
EXTT6=
EXTT7=
EXTT8=
EXTT9=
EXTT10=
EXTT11=
EXTT12=
EXTT13=
EXTT14=
EXTT15=
PLAYORDER=
